<?xml version="1.0" encoding="UTF-8"?>
<svg xmlns="http://www.w3.org/2000/svg" xmlns:xlink="http://www.w3.org/1999/xlink" width="112px" height="112px" viewBox="0 0 112 112" version="1.1">

<!-- logo -->
  <g id="logo">
    <path style=" stroke:none;fill-rule:nonzero;fill:rgb(10.980392%,15.294118%,29.803922%);fill-opacity:1;" d="M 65.417969 34.367188 C 65.917969 32.5 64.8125 30.582031 62.945312 30.082031 C 61.078125 29.582031 59.15625 30.6875 58.65625 32.554688 L 46.578125 77.632812 C 46.078125 79.5 47.1875 81.417969 49.054688 81.917969 C 50.921875 82.417969 52.839844 81.3125 53.339844 79.445312 Z M 65.417969 34.367188 "/>
    <path style=" stroke:none;fill-rule:nonzero;fill:rgb(10.980392%,15.294118%,29.803922%);fill-opacity:1;" d="M 74.808594 39.523438 C 73.441406 38.160156 71.226562 38.160156 69.859375 39.523438 C 68.492188 40.890625 68.492188 43.109375 69.859375 44.476562 L 70.660156 45.277344 C 73.839844 48.457031 75.972656 50.597656 77.351562 52.40625 C 78.667969 54.132812 78.96875 55.140625 78.96875 56 C 78.96875 56.859375 78.667969 57.867188 77.351562 59.59375 C 75.972656 61.402344 73.839844 63.542969 70.660156 66.722656 L 69.859375 67.523438 C 68.492188 68.890625 68.492188 71.109375 69.859375 72.476562 C 71.226562 73.839844 73.441406 73.839844 74.808594 72.476562 L 75.78125 71.503906 C 78.746094 68.539062 81.21875 66.066406 82.917969 63.839844 C 84.710938 61.488281 85.96875 59.003906 85.96875 56 C 85.96875 52.996094 84.710938 50.511719 82.917969 48.160156 C 81.21875 45.933594 78.746094 43.460938 75.78125 40.496094 Z M 74.808594 39.523438 "/>
    <path style=" stroke:none;fill-rule:nonzero;fill:rgb(10.980392%,15.294118%,29.803922%);fill-opacity:1;" d="M 37.191406 39.523438 C 38.558594 38.160156 40.777344 38.160156 42.140625 39.523438 C 43.507812 40.890625 43.507812 43.109375 42.140625 44.476562 L 41.339844 45.277344 C 38.160156 48.457031 36.027344 50.597656 34.648438 52.40625 C 33.332031 54.132812 33.035156 55.140625 33.035156 56 C 33.035156 56.859375 33.332031 57.867188 34.648438 59.59375 C 36.027344 61.402344 38.160156 63.542969 41.339844 66.722656 L 42.140625 67.523438 C 43.507812 68.890625 43.507812 71.109375 42.140625 72.476562 C 40.777344 73.839844 38.558594 73.839844 37.191406 72.476562 L 36.21875 71.503906 C 33.253906 68.539062 30.78125 66.066406 29.085938 63.839844 C 27.292969 61.488281 26.035156 59.003906 26.035156 56 C 26.035156 52.996094 27.292969 50.511719 29.085938 48.160156 C 30.78125 45.933594 33.253906 43.460938 36.21875 40.496094 Z M 37.191406 39.523438 "/>
    <path style=" stroke:none;fill-rule:evenodd;fill:rgb(10.980392%,15.294118%,29.803922%);fill-opacity:1;" d="M 55.730469 5.832031 C 44.960938 5.832031 36.515625 5.832031 29.929688 6.71875 C 23.1875 7.625 17.867188 9.515625 13.691406 13.691406 C 9.515625 17.867188 7.625 23.1875 6.71875 29.929688 C 5.832031 36.515625 5.832031 44.960938 5.832031 55.730469 L 5.832031 56.269531 C 5.832031 67.039062 5.832031 75.480469 6.71875 82.070312 C 7.625 88.8125 9.515625 94.132812 13.691406 98.308594 C 17.867188 102.484375 23.1875 104.375 29.929688 105.28125 C 36.515625 106.167969 44.960938 106.167969 55.730469 106.167969 L 56.269531 106.167969 C 67.039062 106.167969 75.480469 106.167969 82.070312 105.28125 C 88.8125 104.375 94.132812 102.484375 98.308594 98.308594 C 102.484375 94.132812 104.375 88.8125 105.28125 82.070312 C 106.167969 75.480469 106.167969 67.039062 106.167969 56.269531 L 106.167969 55.730469 C 106.167969 44.960938 106.167969 36.515625 105.28125 29.929688 C 104.375 23.1875 102.484375 17.867188 98.308594 13.691406 C 94.132812 9.515625 88.8125 7.625 82.070312 6.71875 C 75.480469 5.832031 67.039062 5.832031 56.269531 5.832031 Z M 18.640625 18.640625 C 21.300781 15.984375 24.898438 14.457031 30.863281 13.65625 C 36.929688 12.839844 44.902344 12.832031 56 12.832031 C 67.097656 12.832031 75.070312 12.839844 81.136719 13.65625 C 87.101562 14.457031 90.699219 15.984375 93.359375 18.640625 C 96.015625 21.300781 97.542969 24.898438 98.34375 30.863281 C 99.160156 36.929688 99.167969 44.902344 99.167969 56 C 99.167969 67.097656 99.160156 75.070312 98.34375 81.136719 C 97.542969 87.101562 96.015625 90.699219 93.359375 93.359375 C 90.699219 96.015625 87.101562 97.542969 81.136719 98.34375 C 75.070312 99.160156 67.097656 99.167969 56 99.167969 C 44.902344 99.167969 36.929688 99.160156 30.863281 98.34375 C 24.898438 97.542969 21.300781 96.015625 18.640625 93.359375 C 15.984375 90.699219 14.457031 87.101562 13.65625 81.136719 C 12.839844 75.070312 12.832031 67.097656 12.832031 56 C 12.832031 44.902344 12.839844 36.929688 13.65625 30.863281 C 14.457031 24.898438 15.984375 21.300781 18.640625 18.640625 Z M 18.640625 18.640625 "/>
  </g>

  <!-- skills -->
  <g id="html">
    <path style=" stroke:none;fill-rule:nonzero;fill:rgb(89.411765%,30.196078%,14.901961%);fill-opacity:1;" d="M 21 98 L 14 10.5 L 98 10.5 L 91 98 L 56 108.5 Z M 21 98 "/>
    <path style=" stroke:none;fill-rule:nonzero;fill:rgb(94.509804%,39.607843%,16.078431%);fill-opacity:1;" d="M 91 17.5 L 56 17.5 L 56 103.25 L 84 94.5 Z M 91 17.5 "/>
    <path style=" stroke:none;fill-rule:nonzero;fill:rgb(100%,100%,100%);fill-opacity:1;" d="M 33.25 61.25 L 29.75 28 L 84 28 L 82.25 38.5 L 40.25 38.5 L 42 50.75 L 80.5 50.75 L 77 84 L 56 91 L 35 84 L 33.25 66.5 L 43.75 66.5 L 45.5 75.25 L 56 78.75 L 66.5 75.25 L 68.25 61.25 Z M 33.25 61.25 "/>
  </g>
  <g id="css">
    <path style=" stroke:none;fill-rule:nonzero;fill:rgb(8.235294%,44.705882%,71.372549%);fill-opacity:1;" d="M 20.65625 95.203125 L 12.796875 7 L 99.203125 7 L 91.332031 95.191406 L 55.949219 105 Z M 20.65625 95.203125 "/>
    <path style=" stroke:none;fill-rule:nonzero;fill:rgb(20%,66.27451%,86.27451%);fill-opacity:1;" d="M 56 97.503906 L 84.59375 89.574219 L 91.320312 14.214844 L 56 14.214844 Z M 56 97.503906 "/>
    <path style=" stroke:none;fill-rule:nonzero;fill:rgb(100%,100%,100%);fill-opacity:1;" d="M 56 46.167969 L 70.316406 46.167969 L 71.300781 35.089844 L 56 35.089844 L 56 24.273438 L 83.125 24.273438 L 82.867188 27.175781 L 80.210938 56.988281 L 56 56.988281 Z M 56 46.167969 "/>
    <path style=" stroke:none;fill-rule:nonzero;fill:rgb(92.156863%,92.156863%,92.156863%);fill-opacity:1;" d="M 56.066406 74.261719 L 56.015625 74.277344 L 43.96875 71.023438 L 43.199219 62.394531 L 32.339844 62.394531 L 33.855469 79.378906 L 56.015625 85.53125 L 56.066406 85.519531 Z M 56.066406 74.261719 "/>
    <path style=" stroke:none;fill-rule:nonzero;fill:rgb(100%,100%,100%);fill-opacity:1;" d="M 69.394531 56.527344 L 68.09375 71.015625 L 56.027344 74.269531 L 56.027344 85.527344 L 78.203125 79.378906 L 78.367188 77.554688 L 80.246094 56.527344 Z M 69.394531 56.527344 "/>
    <path style=" stroke:none;fill-rule:nonzero;fill:rgb(92.156863%,92.156863%,92.156863%);fill-opacity:1;" d="M 56.039062 24.273438 L 56.039062 35.089844 L 29.90625 35.089844 L 29.691406 32.660156 L 29.195312 27.175781 L 28.9375 24.273438 Z M 56.039062 24.273438 "/>
    <path style=" stroke:none;fill-rule:nonzero;fill:rgb(92.156863%,92.156863%,92.156863%);fill-opacity:1;" d="M 56 46.167969 L 56 56.988281 L 44.101562 56.988281 L 43.886719 54.554688 L 43.398438 49.070312 L 43.136719 46.167969 Z M 56 46.167969 "/>
  </g>
  <g id="typescript">
    <path style=" stroke:none;fill-rule:nonzero;fill:rgb(19.215686%,47.058824%,77.647059%);fill-opacity:1;" d="M 11.59375 7 L 100.40625 7 C 102.945312 7 105 9.054688 105 11.59375 L 105 100.40625 C 105 102.945312 102.945312 105 100.40625 105 L 11.59375 105 C 9.054688 105 7 102.945312 7 100.40625 L 7 11.59375 C 7 9.054688 9.054688 7 11.59375 7 Z M 11.59375 7 "/>
    <path style=" stroke:none;fill-rule:evenodd;fill:rgb(100%,100%,100%);fill-opacity:1;" d="M 63.859375 83.15625 L 63.859375 93.894531 C 65.808594 94.859375 67.886719 95.535156 70.03125 95.90625 C 72.507812 96.363281 75.023438 96.589844 77.542969 96.578125 C 79.996094 96.589844 82.449219 96.34375 84.851562 95.839844 C 87.007812 95.40625 89.066406 94.574219 90.921875 93.390625 C 92.644531 92.277344 94.066406 90.753906 95.054688 88.960938 C 96.828125 85.238281 97.0625 80.972656 95.707031 77.082031 C 95.136719 75.625 94.28125 74.296875 93.199219 73.171875 C 92.035156 71.972656 90.710938 70.941406 89.265625 70.101562 C 87.605469 69.128906 85.878906 68.269531 84.097656 67.53125 C 82.699219 66.953125 81.4375 66.386719 80.316406 65.839844 C 79.324219 65.363281 78.371094 64.800781 77.472656 64.160156 C 76.769531 63.667969 76.15625 63.054688 75.667969 62.347656 C 75.242188 61.707031 75.023438 60.953125 75.03125 60.1875 C 75.023438 59.480469 75.21875 58.785156 75.601562 58.1875 C 76.011719 57.5625 76.5625 57.039062 77.207031 56.660156 C 77.996094 56.199219 78.851562 55.863281 79.746094 55.671875 C 80.847656 55.425781 81.96875 55.308594 83.09375 55.320312 C 84.039062 55.324219 84.984375 55.390625 85.921875 55.523438 C 86.933594 55.660156 87.933594 55.867188 88.917969 56.144531 C 89.917969 56.421875 90.894531 56.773438 91.84375 57.195312 C 92.761719 57.605469 93.644531 58.097656 94.472656 58.671875 L 94.472656 48.648438 C 92.746094 47.996094 90.957031 47.527344 89.132812 47.25 C 86.933594 46.929688 84.710938 46.777344 82.484375 46.796875 C 80.050781 46.785156 77.628906 47.0625 75.261719 47.621094 C 73.121094 48.109375 71.085938 48.980469 69.253906 50.1875 C 67.550781 51.320312 66.148438 52.847656 65.15625 54.636719 C 64.105469 56.621094 63.585938 58.847656 63.648438 61.09375 C 63.570312 64.0625 64.546875 66.964844 66.410156 69.28125 C 68.691406 71.851562 71.570312 73.820312 74.792969 75.019531 C 76.261719 75.625 77.632812 76.21875 78.902344 76.800781 C 80.050781 77.3125 81.152344 77.917969 82.199219 78.609375 C 83.046875 79.160156 83.785156 79.851562 84.390625 80.65625 C 84.925781 81.386719 85.207031 82.269531 85.195312 83.175781 C 85.203125 83.851562 85.027344 84.515625 84.691406 85.105469 C 84.320312 85.738281 83.796875 86.269531 83.171875 86.648438 C 82.386719 87.128906 81.527344 87.472656 80.628906 87.671875 C 79.460938 87.933594 78.265625 88.054688 77.066406 88.039062 C 74.714844 88.035156 72.382812 87.621094 70.175781 86.8125 C 67.867188 85.980469 65.726562 84.742188 63.859375 83.15625 Z M 45.820312 56.421875 L 59.820312 56.421875 L 59.820312 47.578125 L 20.78125 47.578125 L 20.78125 56.421875 L 34.71875 56.421875 L 34.71875 95.8125 L 45.820312 95.8125 Z M 45.820312 56.421875 "/>
  </g>
  <g id="react">
    <path style=" stroke:none;fill-rule:nonzero;fill:rgb(32.54902%,75.686275%,87.058824%);fill-opacity:1;" d="M 65.375 55.914062 C 65.375 50.894531 61.179688 46.824219 56 46.824219 C 50.820312 46.824219 46.625 50.894531 46.625 55.914062 C 46.625 60.9375 50.820312 65.007812 56 65.007812 C 61.179688 65.007812 65.375 60.9375 65.375 55.914062 Z M 65.375 55.914062 "/>
    <path style=" stroke:none;fill-rule:evenodd;fill:rgb(32.54902%,75.686275%,87.058824%);fill-opacity:1;" d="M 86.453125 39.039062 C 88.429688 31.238281 90.921875 16.769531 82.144531 11.867188 C 73.414062 6.980469 62.050781 16.339844 56.046875 21.957031 C 50.066406 16.394531 38.382812 7.078125 29.617188 12 C 20.886719 16.898438 23.578125 31.125 25.601562 38.976562 C 17.460938 41.21875 3.5 46.046875 3.5 55.914062 C 3.5 65.757812 17.445312 71.011719 25.539062 73.25 C 23.507812 81.144531 20.949219 95.167969 29.691406 100.058594 C 38.492188 104.976562 50.136719 95.878906 56.195312 90.203125 C 62.234375 95.851562 73.488281 105.007812 82.222656 100.105469 C 90.984375 95.1875 88.703125 80.914062 86.679688 73.019531 C 94.527344 70.773438 108.5 65.632812 108.5 55.914062 C 108.5 46.140625 94.464844 41.273438 86.453125 39.039062 Z M 85.457031 68.835938 C 84.128906 64.753906 82.335938 60.417969 80.140625 55.9375 C 82.234375 51.5625 83.957031 47.28125 85.25 43.226562 C 91.125 44.878906 104.015625 48.65625 104.015625 55.914062 C 104.015625 63.246094 91.644531 67.054688 85.457031 68.835938 Z M 79.976562 96.339844 C 73.457031 100 63.777344 91.242188 59.316406 87.082031 C 62.277344 83.945312 65.234375 80.296875 68.117188 76.246094 C 73.195312 75.8125 77.992188 75.097656 82.339844 74.121094 C 83.765625 79.707031 86.519531 92.667969 79.976562 96.339844 Z M 31.933594 96.289062 C 25.414062 92.644531 28.394531 80.132812 29.886719 74.316406 C 34.1875 75.238281 38.949219 75.902344 44.039062 76.304688 C 46.941406 80.265625 49.984375 83.910156 53.050781 87.101562 C 49.261719 90.652344 38.480469 99.949219 31.933594 96.289062 Z M 7.984375 55.914062 C 7.984375 48.558594 20.796875 44.8125 26.804688 43.164062 C 28.121094 47.308594 29.84375 51.640625 31.925781 56.023438 C 29.816406 60.46875 28.070312 64.871094 26.742188 69.0625 C 21.011719 67.472656 7.984375 63.277344 7.984375 55.914062 Z M 31.863281 15.761719 C 38.40625 12.089844 48.5625 21.035156 52.90625 25.058594 C 49.855469 28.238281 46.839844 31.851562 43.960938 35.792969 C 39.023438 36.238281 34.296875 36.949219 29.949219 37.902344 C 28.320312 31.574219 25.324219 19.429688 31.863281 15.761719 Z M 71.328125 40.519531 C 74.679688 40.929688 77.886719 41.476562 80.902344 42.140625 C 79.996094 44.953125 78.867188 47.894531 77.539062 50.910156 C 75.617188 47.367188 73.546875 43.894531 71.328125 40.519531 Z M 56.050781 28.167969 C 58.117188 30.339844 60.191406 32.769531 62.230469 35.402344 C 58.09375 35.210938 53.953125 35.210938 49.820312 35.398438 C 51.859375 32.789062 53.949219 30.367188 56.050781 28.167969 Z M 34.496094 50.90625 C 33.191406 47.902344 32.074219 44.949219 31.160156 42.097656 C 34.15625 41.445312 37.351562 40.914062 40.679688 40.511719 C 38.453125 43.878906 36.390625 47.351562 34.496094 50.90625 Z M 40.777344 71.628906 C 37.335938 71.257812 34.09375 70.753906 31.097656 70.121094 C 32.027344 67.21875 33.167969 64.203125 34.503906 61.132812 C 36.421875 64.726562 38.515625 68.230469 40.777344 71.628906 Z M 56.175781 83.96875 C 54.046875 81.746094 51.929688 79.285156 49.855469 76.640625 C 54.015625 76.796875 58.179688 76.796875 62.339844 76.617188 C 60.292969 79.3125 58.230469 81.777344 56.175781 83.96875 Z M 77.582031 60.976562 C 78.988281 64.078125 80.171875 67.078125 81.109375 69.933594 C 78.066406 70.605469 74.777344 71.148438 71.316406 71.550781 C 73.550781 68.113281 75.652344 64.585938 77.582031 60.976562 Z M 65.617188 72.078125 C 59.253906 72.519531 52.855469 72.515625 46.492188 72.117188 C 42.878906 66.996094 39.660156 61.609375 36.882812 56.019531 C 39.648438 50.441406 42.839844 45.066406 46.4375 39.957031 C 52.804688 39.488281 59.210938 39.488281 65.578125 39.957031 C 69.144531 45.070312 72.335938 50.429688 75.164062 55.957031 C 72.371094 61.535156 69.160156 66.917969 65.617188 72.078125 Z M 79.90625 15.632812 C 86.453125 19.292969 83.539062 32.296875 82.109375 37.949219 C 77.753906 36.972656 73.023438 36.25 68.070312 35.796875 C 65.183594 31.816406 62.195312 28.191406 59.195312 25.058594 C 63.59375 20.945312 73.421875 12.007812 79.90625 15.632812 Z M 79.90625 15.632812 "/>
  </g>
  <g id="figma">
    <path style=" stroke:none;fill-rule:nonzero;fill:rgb(10.196078%,73.72549%,99.607843%);fill-opacity:1;" d="M 59.851562 56 C 59.851562 46.976562 66.984375 39.667969 75.773438 39.667969 C 84.574219 39.667969 91.699219 46.96875 91.699219 56 C 91.699219 65.023438 84.574219 72.332031 75.773438 72.332031 C 66.988281 72.332031 59.851562 65.03125 59.851562 56 Z M 59.851562 56 "/>
    <path style=" stroke:none;fill-rule:nonzero;fill:rgb(3.921569%,81.176471%,51.372549%);fill-opacity:1;" d="M 28 88.667969 C 28 79.644531 35.132812 72.332031 43.925781 72.332031 L 59.851562 72.332031 L 59.851562 88.667969 C 59.851562 97.683594 52.71875 105 43.925781 105 C 35.132812 105 28 97.683594 28 88.667969 Z M 28 88.667969 "/>
    <path style=" stroke:none;fill-rule:nonzero;fill:rgb(100%,44.705882%,38.431373%);fill-opacity:1;" d="M 59.851562 7 L 59.851562 39.667969 L 75.773438 39.667969 C 84.574219 39.667969 91.699219 32.355469 91.699219 23.332031 C 91.699219 14.316406 84.574219 7 75.773438 7 Z M 59.851562 7 "/>
    <path style=" stroke:none;fill-rule:nonzero;fill:rgb(94.901961%,30.588235%,11.764706%);fill-opacity:1;" d="M 28 23.332031 C 28 32.355469 35.132812 39.667969 43.925781 39.667969 L 59.851562 39.667969 L 59.851562 7 L 43.925781 7 C 35.132812 7 28 14.316406 28 23.332031 Z M 28 23.332031 "/>
    <path style=" stroke:none;fill-rule:nonzero;fill:rgb(63.529412%,34.901961%,100%);fill-opacity:1;" d="M 28 56 C 28 65.023438 35.132812 72.332031 43.925781 72.332031 L 59.851562 72.332031 L 59.851562 39.667969 L 43.925781 39.667969 C 35.132812 39.667969 28 46.96875 28 56 Z M 28 56 "/>
  </g>
  <g id="git">
    <path style=" stroke:none;fill-rule:nonzero;fill:rgb(93.333333%,31.764706%,23.137255%);fill-opacity:1;" d="M 9.046875 60.945312 C 6.316406 58.214844 6.316406 53.785156 9.046875 51.054688 L 51.054688 9.046875 C 53.785156 6.316406 58.214844 6.316406 60.945312 9.046875 L 102.949219 51.054688 C 105.683594 53.785156 105.683594 58.214844 102.949219 60.945312 L 60.945312 102.949219 C 58.214844 105.683594 53.785156 105.683594 51.054688 102.949219 Z M 9.046875 60.945312 "/>
    <path style=" stroke:none;fill-rule:nonzero;fill:rgb(100%,100%,100%);fill-opacity:1;" d="M 42.519531 17.714844 L 38.269531 21.96875 L 49.253906 32.957031 C 48.808594 33.910156 48.5625 34.972656 48.5625 36.09375 C 48.5625 39.277344 50.5625 41.992188 53.375 43.054688 L 53.375 69.929688 C 50.5625 70.988281 48.5625 73.707031 48.5625 76.890625 C 48.5625 80.996094 51.890625 84.328125 56 84.328125 C 60.105469 84.328125 63.4375 80.996094 63.4375 76.890625 C 63.4375 74.003906 61.792969 71.5 59.390625 70.269531 L 59.390625 43.089844 L 69.890625 53.59375 C 69.46875 54.527344 69.234375 55.5625 69.234375 56.65625 C 69.234375 60.761719 72.5625 64.09375 76.671875 64.09375 C 80.777344 64.09375 84.109375 60.761719 84.109375 56.65625 C 84.109375 52.546875 80.777344 49.21875 76.671875 49.21875 C 75.871094 49.21875 75.105469 49.34375 74.382812 49.578125 L 63.105469 38.296875 C 63.320312 37.601562 63.4375 36.859375 63.4375 36.09375 C 63.4375 31.984375 60.105469 28.65625 56 28.65625 C 55.230469 28.65625 54.492188 28.773438 53.792969 28.988281 Z M 42.519531 17.714844 "/>
  </g>
  <g id="github">
    <path style=" stroke:none;fill-rule:evenodd;fill:rgb(0%,0%,0%);fill-opacity:1;" d="M 56 0 C 86.929688 0 112 25.703125 112 57.417969 C 112 82.777344 95.972656 104.292969 73.734375 111.894531 C 70.894531 112.460938 69.886719 110.667969 69.886719 109.136719 C 69.886719 107.246094 69.957031 101.0625 69.957031 93.378906 C 69.957031 88.027344 68.164062 84.53125 66.152344 82.75 C 78.625 81.328125 91.726562 76.472656 91.726562 54.421875 C 91.726562 48.148438 89.554688 43.03125 85.960938 39.007812 C 86.542969 37.558594 88.464844 31.71875 85.410156 23.8125 C 85.410156 23.8125 80.71875 22.269531 70.027344 29.695312 C 65.554688 28.425781 60.761719 27.789062 56 27.765625 C 51.238281 27.789062 46.453125 28.425781 41.984375 29.695312 C 31.28125 22.269531 26.578125 23.8125 26.578125 23.8125 C 23.535156 31.71875 25.457031 37.558594 26.035156 39.007812 C 22.457031 43.03125 20.265625 48.148438 20.265625 54.421875 C 20.265625 76.417969 33.34375 81.34375 45.78125 82.796875 C 44.179688 84.230469 42.726562 86.761719 42.222656 90.472656 C 39.03125 91.941406 30.921875 94.476562 25.929688 85.703125 C 25.929688 85.703125 22.964844 80.1875 17.34375 79.78125 C 17.34375 79.78125 11.882812 79.710938 16.960938 83.273438 C 16.960938 83.273438 20.628906 85.035156 23.179688 91.671875 C 23.179688 91.671875 26.464844 101.921875 42.042969 98.449219 C 42.074219 103.246094 42.125 107.773438 42.125 109.136719 C 42.125 110.65625 41.09375 112.429688 38.296875 111.898438 C 16.042969 104.3125 0 82.785156 0 57.417969 C 0 25.703125 25.078125 0 56 0 "/>
  </g>
  <g id="styledcomponents">
    <path style=" stroke:none;fill-rule:nonzero;fill:rgb(100%,80.784314%,74.901961%);fill-opacity:1;" d="M 63.175781 103.601562 C 63.320312 103.265625 63.691406 103.035156 63.960938 102.757812 C 68.074219 98.445312 72.222656 94.171875 76.277344 89.804688 C 78.851562 87.429688 80.164062 83.988281 79.828125 80.5 C 79.699219 79.761719 79.535156 79.035156 79.328125 78.316406 C 78.222656 79.367188 77.191406 80.320312 76.15625 81.285156 C 74.546875 82.78125 72.945312 84.285156 71.320312 85.765625 C 69.359375 87.765625 66.371094 88.347656 63.800781 87.234375 C 61.207031 86.28125 59.429688 83.871094 59.285156 81.109375 C 59.25 80.933594 59.199219 80.765625 59.136719 80.597656 C 57.902344 81.648438 56.71875 82.613281 55.546875 83.609375 L 31.175781 104.257812 C 31.007812 104.402344 30.824219 104.578125 30.667969 104.71875 L 63.15625 104.71875 L 63.109375 104.6875 C 62.933594 104.566406 63.023438 103.921875 63.175781 103.601562 Z M 63.175781 103.601562 "/>
    <path style=" stroke:none;fill-rule:nonzero;fill:rgb(100%,80.784314%,74.901961%);fill-opacity:1;" d="M 29.179688 103.601562 C 29.46875 103.222656 29.816406 102.898438 30.210938 102.632812 L 63.9375 74.023438 C 66.238281 72.070312 68.527344 70.105469 70.808594 68.132812 C 71.089844 67.933594 71.3125 67.664062 71.445312 67.347656 C 71.992188 64.972656 72.066406 62.511719 71.671875 60.105469 C 71.324219 60.351562 71.132812 60.457031 70.972656 60.628906 C 68.210938 63.097656 65.464844 65.589844 62.6875 68.046875 C 60.800781 69.945312 57.90625 70.410156 55.519531 69.199219 C 53.09375 68.054688 51.601562 65.554688 51.742188 62.875 C 51.742188 62.578125 51.742188 62.28125 51.742188 61.738281 C 51.234375 62.109375 50.863281 62.359375 50.515625 62.640625 C 37.015625 73.449219 23.519531 84.246094 10.027344 95.039062 C 9.417969 95.527344 8.691406 96.609375 7.890625 95.558594 C 7.09375 94.503906 8.308594 94.070312 8.921875 93.578125 C 23.304688 82.035156 37.699219 70.503906 52.097656 58.980469 C 54.441406 57.101562 54.597656 56.316406 53.070312 53.328125 L 52.160156 54.183594 C 49.664062 56.503906 47.140625 58.792969 44.683594 61.152344 C 42.628906 63.136719 39.613281 63.761719 36.9375 62.765625 C 34.257812 61.765625 32.390625 59.320312 32.136719 56.472656 C 31.671875 56.824219 31.269531 57.078125 30.886719 57.375 L 9.539062 73.921875 C 9.167969 74.285156 8.75 74.589844 8.292969 74.828125 C 7.945312 74.929688 7.574219 74.914062 7.242188 74.773438 L 7.242188 104.738281 L 29.136719 104.738281 C 28.972656 104.371094 28.988281 103.953125 29.179688 103.601562 Z M 29.179688 103.601562 "/>
    <path style=" stroke:none;fill-rule:nonzero;fill:rgb(100%,38.039216%,58.823529%);fill-opacity:1;" d="M 88.328125 8.480469 C 87.734375 10.429688 87.15625 12.382812 86.636719 14.351562 C 85.636719 17.238281 87.003906 20.410156 89.785156 21.667969 C 93.890625 23.828125 98.519531 24.796875 103.148438 24.46875 L 103.148438 8.8125 C 103.097656 8.46875 103.117188 8.121094 103.203125 7.785156 C 103.300781 7.59375 103.425781 7.417969 103.570312 7.261719 L 88.316406 7.261719 C 88.550781 7.535156 88.46875 8.015625 88.328125 8.480469 Z M 88.328125 8.480469 "/>
    <path style=" stroke:none;fill-rule:nonzero;fill:rgb(100%,52.941176%,68.627451%);fill-opacity:1;" d="M 57.6875 42.113281 C 57.613281 43.859375 57.003906 45.542969 55.9375 46.929688 C 52.125 51.847656 47.75 56.304688 42.894531 60.199219 C 41.289062 61.6875 38.910156 61.96875 37.003906 60.898438 C 35.105469 60.089844 33.921875 58.171875 34.050781 56.113281 C 34.164062 54.878906 34.675781 53.714844 35.511719 52.796875 C 40.9375 47.625 46.816406 42.945312 53.078125 38.820312 C 53.917969 38.164062 55.085938 38.113281 55.980469 38.703125 C 57.144531 39.425781 57.804688 40.746094 57.6875 42.113281 Z M 57.6875 42.113281 "/>
    <path style=" stroke:none;fill-rule:nonzero;fill:rgb(100%,52.941176%,68.627451%);fill-opacity:1;" d="M 53.492188 63.324219 C 53.328125 61.757812 53.910156 60.203125 55.0625 59.125 C 60.375 54.226562 66.074219 49.761719 72.105469 45.78125 C 72.289062 45.664062 72.457031 45.550781 72.65625 45.429688 C 73.742188 44.648438 75.214844 44.699219 76.242188 45.550781 C 77.234375 46.390625 77.578125 47.773438 77.089844 48.980469 C 76.328125 51.519531 74.917969 53.820312 73.003906 55.65625 C 69.136719 59.507812 65.121094 63.230469 61.101562 66.925781 C 59.851562 68.214844 57.886719 68.492188 56.328125 67.597656 C 54.710938 66.757812 53.640625 65.144531 53.492188 63.324219 Z M 53.492188 63.324219 "/>
    <path style=" stroke:none;fill-rule:nonzero;fill:rgb(100%,52.941176%,68.627451%);fill-opacity:1;" d="M 78.75 65.640625 C 77.769531 66.6875 76.761719 67.691406 75.820312 68.765625 C 75.539062 69.179688 75.300781 69.625 75.121094 70.09375 C 75.636719 70.25 76.242188 70.65625 76.664062 70.511719 C 78.800781 69.792969 80.886719 68.933594 83.238281 68.027344 C 82.726562 69.203125 82.339844 70.285156 81.796875 71.28125 C 79.5625 75.035156 76.765625 78.425781 73.5 81.332031 C 72.257812 82.53125 70.96875 83.675781 69.632812 84.765625 C 68.191406 85.960938 66.21875 86.289062 64.464844 85.625 C 62.714844 84.957031 61.460938 83.398438 61.179688 81.546875 C 61.066406 80.523438 61.367188 79.5 62.011719 78.699219 C 66.777344 73.527344 72.21875 69.027344 78.195312 65.320312 C 78.265625 65.292969 78.34375 65.277344 78.421875 65.273438 Z M 78.75 65.640625 "/>
    <path style=" stroke:none;fill-rule:nonzero;fill:rgb(100%,38.039216%,58.823529%);fill-opacity:1;" d="M 86.777344 51.699219 L 92.765625 25.097656 L 96.96875 26.082031 L 94.800781 32.664062 C 92.777344 38.789062 90.730469 44.914062 88.757812 51.046875 C 88.371094 52.179688 87.867188 52.390625 86.777344 51.699219 Z M 86.777344 51.699219 "/>
    <path style=" stroke:none;fill-rule:nonzero;fill:rgb(100%,38.039216%,58.823529%);fill-opacity:1;" d="M 80.015625 67.34375 C 80.652344 64.925781 81.28125 62.6875 81.8125 60.425781 C 82.332031 58.234375 83.316406 56.179688 84.703125 54.402344 C 85.554688 53.289062 86.507812 53.730469 87.484375 53.972656 C 88.390625 54.195312 88.617188 54.855469 88.65625 55.722656 C 88.796875 58.125 88.066406 60.496094 86.597656 62.398438 C 84.847656 64.566406 82.585938 66.265625 80.015625 67.34375 Z M 80.015625 67.34375 "/>
    <path style=" stroke:none;fill-rule:nonzero;fill:rgb(0%,0%,0%);fill-opacity:1;" d="M 104.976562 10.128906 C 105.027344 9.347656 105.007812 8.566406 104.914062 7.789062 C 104.84375 7.574219 104.699219 7.386719 104.511719 7.261719 C 104.355469 7.136719 104.171875 7.046875 103.976562 7 C 103.867188 6.980469 103.707031 7.09375 103.558594 7.257812 C 103.414062 7.414062 103.289062 7.589844 103.191406 7.78125 C 103.101562 8.117188 103.082031 8.464844 103.132812 8.808594 L 103.132812 24.460938 C 98.507812 24.789062 93.878906 23.820312 89.773438 21.660156 C 86.988281 20.402344 85.625 17.234375 86.621094 14.347656 C 87.144531 12.375 87.71875 10.421875 88.316406 8.472656 C 88.457031 8.007812 88.535156 7.527344 88.316406 7.253906 C 88.191406 7.121094 88.023438 7.042969 87.84375 7.03125 C 87.613281 7.035156 87.386719 7.113281 87.207031 7.253906 C 86.945312 7.410156 86.734375 7.644531 86.609375 7.921875 C 85.90625 10.019531 85.292969 12.140625 84.757812 14.285156 C 84.554688 15.128906 84.5 16 84.59375 16.863281 C 84.871094 20.050781 86.980469 22.785156 89.992188 23.863281 C 90.652344 24.140625 91.042969 24.414062 90.855469 25.285156 C 90.601562 26.390625 90.351562 27.496094 90.101562 28.605469 C 88.386719 36.125 86.679688 43.644531 84.984375 51.171875 C 84.9375 51.503906 84.789062 51.820312 84.558594 52.070312 C 83.441406 52.957031 82.503906 54.050781 81.792969 55.289062 C 80.886719 56.925781 80.257812 58.699219 79.9375 60.539062 C 79.8125 61.734375 79.070312 62.777344 77.984375 63.285156 C 76.523438 64.027344 75.183594 64.980469 73.5625 65.976562 C 73.671875 64.027344 73.648438 62.074219 73.5 60.125 C 73.25 58.910156 73.621094 57.648438 74.492188 56.765625 C 76.628906 54.652344 78.148438 51.996094 78.898438 49.085938 C 79.347656 47.71875 79.125 46.21875 78.289062 45.042969 C 77.453125 43.867188 76.109375 43.160156 74.667969 43.136719 C 73.519531 43.125 72.390625 43.445312 71.417969 44.0625 C 68.066406 46.324219 64.808594 48.722656 61.574219 51.152344 C 59.660156 52.59375 57.859375 54.191406 56.003906 55.703125 C 55.921875 55.617188 55.855469 55.519531 55.796875 55.417969 C 55.761719 55.160156 55.691406 54.910156 55.589844 54.671875 C 54.039062 52.277344 55.113281 50.535156 56.796875 48.746094 C 58.550781 46.910156 59.519531 44.460938 59.5 41.917969 C 59.554688 40.625 59.148438 39.351562 58.355469 38.328125 C 57.933594 37.808594 57.410156 37.375 56.824219 37.058594 C 55.109375 36.121094 52.992188 36.34375 51.511719 37.625 L 50.535156 38.324219 C 48.308594 39.921875 46.050781 41.476562 43.902344 43.183594 C 40.773438 45.675781 37.710938 48.273438 34.714844 50.933594 C 33.3125 52.167969 32.289062 53.855469 30.839844 55.003906 C 23.265625 60.984375 15.609375 66.855469 7.984375 72.769531 C 7.722656 72.925781 7.480469 73.113281 7.265625 73.332031 C 7.242188 73.363281 7.226562 73.398438 7.210938 73.433594 C 7.050781 73.808594 6.914062 74.425781 7.101562 74.65625 C 7.148438 74.703125 7.203125 74.742188 7.265625 74.769531 C 7.597656 74.910156 7.96875 74.925781 8.316406 74.824219 C 8.773438 74.585938 9.195312 74.28125 9.5625 73.921875 L 30.910156 57.371094 C 31.292969 57.074219 31.695312 56.804688 32.160156 56.46875 C 32.417969 59.316406 34.285156 61.761719 36.960938 62.761719 C 39.640625 63.757812 42.652344 63.132812 44.710938 61.148438 C 47.160156 58.789062 49.691406 56.5 52.183594 54.179688 L 53.09375 53.324219 C 54.621094 56.3125 54.46875 57.097656 52.121094 58.976562 C 37.710938 70.511719 23.3125 82.042969 8.921875 93.578125 C 8.308594 94.070312 7.097656 94.515625 7.890625 95.558594 C 8.6875 96.601562 9.417969 95.527344 10.027344 95.039062 C 23.527344 84.257812 37.019531 73.460938 50.5 62.648438 C 50.851562 62.371094 51.21875 62.121094 51.726562 61.75 C 51.726562 62.292969 51.726562 62.585938 51.726562 62.882812 C 51.585938 65.5625 53.078125 68.0625 55.507812 69.210938 C 57.890625 70.421875 60.789062 69.957031 62.675781 68.058594 C 65.449219 65.609375 68.199219 63.109375 70.960938 60.636719 C 71.132812 60.480469 71.335938 60.359375 71.660156 60.117188 C 72.054688 62.523438 71.976562 64.980469 71.429688 67.359375 C 71.296875 67.671875 71.074219 67.945312 70.792969 68.140625 C 68.511719 70.113281 66.222656 72.078125 63.925781 74.03125 L 30.210938 102.648438 C 29.816406 102.910156 29.46875 103.238281 29.179688 103.613281 C 28.992188 103.960938 28.976562 104.375 29.136719 104.738281 C 29.457031 104.976562 29.871094 105.058594 30.257812 104.957031 C 30.410156 104.914062 30.546875 104.835938 30.664062 104.730469 C 30.839844 104.589844 31.011719 104.410156 31.171875 104.269531 L 55.542969 83.617188 C 56.714844 82.625 57.898438 81.644531 59.132812 80.609375 C 59.195312 80.773438 59.246094 80.945312 59.28125 81.121094 C 59.425781 83.882812 61.203125 86.289062 63.796875 87.246094 C 66.367188 88.359375 69.355469 87.777344 71.316406 85.777344 C 72.941406 84.296875 74.542969 82.792969 76.152344 81.292969 C 77.203125 80.332031 78.21875 79.367188 79.324219 78.328125 C 79.53125 79.046875 79.695312 79.773438 79.824219 80.511719 C 80.152344 83.984375 78.839844 87.414062 76.277344 89.78125 C 72.21875 94.148438 68.070312 98.421875 63.960938 102.730469 C 63.691406 103.011719 63.320312 103.242188 63.171875 103.574219 C 63.023438 103.90625 62.929688 104.558594 63.105469 104.699219 L 63.152344 104.730469 C 63.519531 104.910156 63.933594 104.972656 64.335938 104.910156 C 64.449219 104.886719 64.550781 104.824219 64.621094 104.730469 C 64.71875 104.628906 64.8125 104.503906 64.90625 104.410156 C 68.238281 100.964844 71.589844 97.539062 74.898438 94.070312 C 76.230469 92.71875 77.488281 91.289062 78.65625 89.789062 C 81.765625 86.34375 82.601562 81.40625 80.789062 77.132812 C 80.695312 76.667969 80.789062 76.179688 81.050781 75.78125 C 81.277344 75.390625 81.527344 75.007812 81.789062 74.628906 C 82.617188 73.554688 83.308594 72.378906 83.84375 71.128906 C 84.878906 68.066406 86.464844 65.21875 88.527344 62.730469 C 90.453125 60.292969 91.101562 57.082031 90.277344 54.089844 C 90.136719 53.527344 90.136719 52.9375 90.277344 52.378906 C 92.050781 46.894531 93.875 41.425781 95.679688 35.957031 C 96.488281 33.503906 97.292969 31.0625 98.09375 28.625 L 98.839844 26.363281 C 100.429688 26.363281 101.925781 26.332031 103.417969 26.363281 C 104.65625 26.398438 105.035156 25.816406 105.019531 24.613281 C 104.949219 19.78125 104.976562 14.957031 104.976562 10.128906 Z M 42.894531 60.199219 C 41.289062 61.6875 38.910156 61.96875 37.003906 60.898438 C 35.105469 60.089844 33.921875 58.171875 34.050781 56.113281 C 34.164062 54.878906 34.675781 53.714844 35.511719 52.796875 C 40.9375 47.625 46.816406 42.945312 53.078125 38.820312 C 53.417969 38.582031 53.808594 38.414062 54.21875 38.332031 C 54.492188 38.28125 54.777344 38.28125 55.050781 38.332031 C 55.382812 38.394531 55.695312 38.523438 55.980469 38.703125 C 57.144531 39.425781 57.804688 40.746094 57.6875 42.117188 C 57.613281 43.863281 57.003906 45.546875 55.9375 46.929688 C 52.125 51.851562 47.75 56.304688 42.894531 60.199219 Z M 61.097656 66.953125 C 59.84375 68.238281 57.878906 68.515625 56.320312 67.625 C 54.699219 66.78125 53.628906 65.160156 53.488281 63.339844 C 53.324219 61.769531 53.902344 60.214844 55.054688 59.140625 C 60.367188 54.238281 66.066406 49.777344 72.101562 45.792969 C 72.28125 45.679688 72.449219 45.5625 72.648438 45.445312 C 73.734375 44.660156 75.210938 44.710938 76.238281 45.566406 C 77.230469 46.40625 77.570312 47.789062 77.085938 48.992188 C 76.320312 51.535156 74.914062 53.835938 72.996094 55.671875 C 69.136719 59.527344 65.121094 63.242188 61.101562 66.9375 Z M 81.785156 71.296875 C 79.550781 75.046875 76.757812 78.429688 73.5 81.332031 C 72.257812 82.53125 70.96875 83.675781 69.632812 84.765625 C 68.191406 85.960938 66.21875 86.289062 64.464844 85.625 C 62.714844 84.957031 61.460938 83.398438 61.179688 81.546875 C 61.066406 80.523438 61.367188 79.5 62.011719 78.699219 C 66.777344 73.527344 72.21875 69.027344 78.195312 65.320312 C 78.265625 65.292969 78.34375 65.277344 78.421875 65.273438 L 78.769531 65.625 C 77.789062 66.675781 76.78125 67.675781 75.839844 68.75 C 75.558594 69.164062 75.324219 69.613281 75.140625 70.082031 C 75.660156 70.234375 76.265625 70.640625 76.683594 70.496094 C 78.375 69.929688 80.039062 69.273438 81.820312 68.570312 L 83.257812 68.011719 C 82.71875 69.203125 82.335938 70.285156 81.792969 71.28125 Z M 86.589844 62.421875 C 85.285156 64.085938 83.648438 65.457031 81.785156 66.453125 C 81.207031 66.777344 80.617188 67.078125 80.011719 67.359375 C 80.632812 64.972656 81.257812 62.765625 81.785156 60.53125 L 81.804688 60.441406 C 82.324219 58.25 83.308594 56.195312 84.695312 54.417969 C 85.546875 53.300781 86.503906 53.746094 87.480469 53.988281 C 88.382812 54.207031 88.609375 54.871094 88.648438 55.738281 C 88.792969 58.136719 88.0625 60.503906 86.597656 62.410156 Z M 94.78125 32.671875 C 92.757812 38.796875 90.710938 44.921875 88.734375 51.054688 C 88.363281 52.207031 87.859375 52.414062 86.773438 51.722656 L 91.960938 28.648438 L 92.761719 25.105469 L 96.960938 26.089844 C 96.671875 26.953125 96.398438 27.804688 96.117188 28.648438 Z M 94.78125 32.671875 "/>
  </g>
  <g id="styled">
    <path style=" stroke:none;fill-rule:nonzero;fill:rgb(0%,0%,0%);fill-opacity:1;" d="M 75.664062 31.554688 L 75.316406 33.378906 C 74.773438 36.839844 74.96875 37.828125 76.453125 39.113281 L 77.886719 40.296875 L 76.402344 46.914062 C 75.515625 50.863281 74.429688 54.171875 73.738281 55.257812 C 73.144531 56.195312 72.453125 57.578125 72.304688 58.320312 C 72.058594 59.207031 71.21875 60.097656 69.933594 60.886719 C 68.800781 61.53125 66.574219 63.257812 64.996094 64.644531 C 63.738281 65.777344 62.871094 66.472656 62.398438 66.769531 L 60.859375 67.988281 C 60.363281 68.78125 60.082031 69.421875 59.976562 69.90625 C 59.867188 70.40625 59.929688 70.738281 60.089844 70.980469 C 60.242188 71.214844 60.507812 71.375 60.871094 71.480469 C 64.738281 67.613281 71.007812 67.613281 74.871094 71.480469 C 78.738281 75.34375 78.738281 81.613281 74.871094 85.480469 C 75.199219 85.390625 75.457031 85.308594 75.679688 85.230469 C 76.023438 84.808594 76.824219 84.003906 78.238281 82.609375 C 81.988281 78.910156 83.421875 76.882812 81.941406 77.429688 C 81.394531 77.625 81.644531 77.128906 82.582031 76.140625 C 84.558594 74.214844 85.695312 71.300781 88.066406 62.167969 C 89.941406 54.960938 89.941406 54.855469 91.320312 54.855469 C 91.96875 54.855469 93.804688 54.96875 93.804688 54.96875 L 93.804688 31.554688 Z M 93.582031 46.324219 C 93.28125 46.324219 92.789062 46.773438 92.492188 47.269531 C 91.953125 48.15625 92.589844 48.695312 100.738281 53.785156 C 105.578125 56.847656 109.480469 59.460938 109.382812 59.664062 C 109.285156 59.808594 105.332031 62.378906 100.59375 65.34375 C 92 70.671875 91.953125 70.722656 92.742188 71.8125 C 93.730469 73.09375 92.742188 73.539062 103.898438 66.574219 L 112 61.390625 L 112 57.488281 L 102.960938 51.90625 C 98.074219 48.847656 93.828125 46.378906 93.582031 46.324219 Z M 18.515625 46.871094 C 18.269531 46.871094 14.023438 49.390625 9.136719 52.402344 L 0 57.984375 L 0 61.882812 L 9.085938 67.5625 C 14.125 70.671875 18.371094 73.242188 18.570312 73.242188 C 18.765625 73.242188 19.160156 72.796875 19.558594 72.253906 C 20.152344 71.316406 19.652344 70.917969 11.308594 65.636719 C 3.359375 60.648438 2.519531 59.957031 3.3125 59.414062 C 3.808594 59.070312 7.558594 56.746094 11.609375 54.230469 C 20.847656 48.550781 20.351562 48.945312 19.609375 47.757812 C 19.316406 47.269531 18.816406 46.824219 18.523438 46.871094 Z M 59.042969 46.980469 C 57.679688 46.96875 54.75 49.046875 45.976562 56.210938 C 45.597656 57.109375 45.566406 57.730469 45.738281 58.132812 C 45.851562 58.40625 46.054688 58.597656 46.339844 58.738281 C 46.621094 58.878906 46.984375 58.964844 47.386719 58.996094 C 48.183594 59.066406 49.125 58.941406 49.886719 58.789062 L 50.398438 58.675781 C 57.800781 56.355469 65.679688 60.480469 67.996094 67.882812 C 70.316406 75.285156 66.191406 83.164062 58.789062 85.480469 C 59.332031 85.179688 61.605469 83.109375 63.878906 80.886719 C 67.875 76.835938 68.816406 75.007812 67.1875 74.414062 C 70.242188 74.4375 72.699219 76.929688 72.679688 79.988281 C 72.65625 83.042969 70.160156 85.5 67.105469 85.480469 Z M 69.289062 49.792969 C 68.089844 49.824219 65.929688 51.214844 62.230469 54.171875 C 60.371094 55.679688 59.195312 56.488281 58.566406 56.65625 L 56.121094 58.589844 C 55.203125 60.269531 55.066406 61.3125 55.308594 61.882812 C 56.140625 61.054688 57.484375 61.054688 58.316406 61.882812 C 59.144531 62.714844 59.144531 64.058594 58.316406 64.890625 L 58.316406 67.597656 C 57.976562 71.007812 57.808594 71.007812 57.886719 67.597656 L 58.019531 67.539062 L 58.269531 67.410156 C 58.734375 66.808594 59.808594 65.675781 61.152344 64.367188 C 65.398438 60.269531 67.570312 57.359375 67.125 56.269531 C 66.925781 55.742188 66.578125 55.476562 66.039062 55.496094 Z M 57.980469 54.832031 C 57.632812 54.871094 56.859375 55.46875 55.464844 56.691406 C 53.449219 58.472656 51.25 59.5 50.488281 59.042969 C 52.539062 49.871094 61.132812 43.6875 70.480469 44.65625 C 79.832031 45.625 86.972656 53.441406 87.09375 62.839844 C 87.21875 72.238281 80.285156 80.242188 70.964844 81.453125 C 61.644531 82.667969 52.890625 76.710938 50.601562 67.597656 C 49.824219 67.75 48.859375 67.875 47.996094 67.808594 C 48.691406 66.289062 50.410156 65.527344 52 66.03125 C 53.589844 66.539062 54.554688 68.148438 54.25 69.789062 C 53.941406 71.429688 52.460938 72.582031 50.792969 72.480469 C 49.128906 72.375 47.800781 71.046875 47.703125 69.378906 C 47.53125 68.960938 47.53125 68.4375 47.726562 67.769531 L 44.691406 70.261719 L 37.828125 75.941406 L 37.828125 74.046875 L 60.320312 56.328125 C 63.925781 54.269531 68.515625 55.523438 70.570312 59.128906 C 72.628906 62.734375 71.375 67.324219 67.769531 69.378906 C 67.941406 68.753906 67.933594 68.4375 67.660156 68.464844 Z M 67.65625 57.816406 C 67.316406 57.816406 66.746094 58.296875 65.835938 59.261719 C 64.601562 60.582031 62.65625 61.863281 61.625 62.121094 L 61.464844 62.207031 C 63.070312 57.53125 67.792969 54.675781 72.679688 55.425781 C 77.566406 56.171875 81.21875 60.308594 81.355469 65.253906 C 81.488281 70.195312 78.070312 74.523438 73.230469 75.539062 C 68.390625 76.554688 63.519531 73.960938 61.660156 69.378906 C 61.378906 69.472656 61.015625 69.585938 60.597656 69.695312 C 59.757812 69.925781 58.710938 70.136719 57.777344 70.113281 C 58.445312 68.515625 60.195312 67.671875 61.859375 68.140625 C 63.523438 68.613281 64.574219 70.25 64.304688 71.957031 C 64.035156 73.667969 62.535156 74.90625 60.808594 74.84375 C 59.082031 74.78125 57.671875 73.441406 57.527344 71.71875 C 57.253906 71.070312 57.363281 70.160156 57.957031 68.867188 L 35.511719 74.820312 L 35.511719 80.445312 L 44.230469 80.445312 L 62.71875 65.921875 C 63.199219 65.390625 63.925781 64.660156 64.898438 63.75 C 67.511719 61.328125 68.105469 60.492188 68.105469 59.257812 C 68.105469 58.296875 67.996094 57.8125 67.65625 57.8125 Z M 72.058594 66.914062 L 70.476562 68.492188 C 69.589844 69.332031 68.007812 70.367188 66.925781 70.8125 L 66.710938 70.90625 L 66.695312 70.929688 L 66.648438 70.976562 C 66.605469 71.007812 66.589844 71.011719 66.554688 71.027344 C 69.664062 64.273438 77.011719 60.550781 84.292969 62.03125 C 91.578125 63.511719 96.886719 69.808594 97.113281 77.238281 C 97.339844 84.667969 92.421875 91.277344 85.242188 93.199219 C 78.0625 95.117188 70.503906 91.847656 66.988281 85.296875 L 71.820312 90.128906 L 73.519531 90.128906 C 73.292969 89.78125 73.230469 89.320312 73.355469 88.75 C 73.734375 84.5 77.488281 81.359375 81.742188 81.742188 C 85.992188 82.121094 89.128906 85.875 88.75 90.128906 L 73.832031 101.914062 L 93.675781 101.914062 L 96.042969 99.199219 C 99.300781 95.402344 100.785156 92.683594 100.785156 90.359375 Z M 72.058594 66.914062 "/>
  </g>

  
</svg>
