<?xml version="1.0" encoding="UTF-8"?>
<svg xmlns="http://www.w3.org/2000/svg" xmlns:xlink="http://www.w3.org/1999/xlink" width="112px" height="112px" viewBox="0 0 112 112" version="1.1">
  <g id="logo">
    <path style=" stroke:none;fill-rule:nonzero;fill:rgb(10.980392%,15.294118%,29.803922%);fill-opacity:1;" d="M 65.417969 34.367188 C 65.917969 32.5 64.8125 30.582031 62.945312 30.082031 C 61.078125 29.582031 59.15625 30.6875 58.65625 32.554688 L 46.578125 77.632812 C 46.078125 79.5 47.1875 81.417969 49.054688 81.917969 C 50.921875 82.417969 52.839844 81.3125 53.339844 79.445312 Z M 65.417969 34.367188 "/>
    <path style=" stroke:none;fill-rule:nonzero;fill:rgb(10.980392%,15.294118%,29.803922%);fill-opacity:1;" d="M 74.808594 39.523438 C 73.441406 38.160156 71.226562 38.160156 69.859375 39.523438 C 68.492188 40.890625 68.492188 43.109375 69.859375 44.476562 L 70.660156 45.277344 C 73.839844 48.457031 75.972656 50.597656 77.351562 52.40625 C 78.667969 54.132812 78.96875 55.140625 78.96875 56 C 78.96875 56.859375 78.667969 57.867188 77.351562 59.59375 C 75.972656 61.402344 73.839844 63.542969 70.660156 66.722656 L 69.859375 67.523438 C 68.492188 68.890625 68.492188 71.109375 69.859375 72.476562 C 71.226562 73.839844 73.441406 73.839844 74.808594 72.476562 L 75.78125 71.503906 C 78.746094 68.539062 81.21875 66.066406 82.917969 63.839844 C 84.710938 61.488281 85.96875 59.003906 85.96875 56 C 85.96875 52.996094 84.710938 50.511719 82.917969 48.160156 C 81.21875 45.933594 78.746094 43.460938 75.78125 40.496094 Z M 74.808594 39.523438 "/>
    <path style=" stroke:none;fill-rule:nonzero;fill:rgb(10.980392%,15.294118%,29.803922%);fill-opacity:1;" d="M 37.191406 39.523438 C 38.558594 38.160156 40.777344 38.160156 42.140625 39.523438 C 43.507812 40.890625 43.507812 43.109375 42.140625 44.476562 L 41.339844 45.277344 C 38.160156 48.457031 36.027344 50.597656 34.648438 52.40625 C 33.332031 54.132812 33.035156 55.140625 33.035156 56 C 33.035156 56.859375 33.332031 57.867188 34.648438 59.59375 C 36.027344 61.402344 38.160156 63.542969 41.339844 66.722656 L 42.140625 67.523438 C 43.507812 68.890625 43.507812 71.109375 42.140625 72.476562 C 40.777344 73.839844 38.558594 73.839844 37.191406 72.476562 L 36.21875 71.503906 C 33.253906 68.539062 30.78125 66.066406 29.085938 63.839844 C 27.292969 61.488281 26.035156 59.003906 26.035156 56 C 26.035156 52.996094 27.292969 50.511719 29.085938 48.160156 C 30.78125 45.933594 33.253906 43.460938 36.21875 40.496094 Z M 37.191406 39.523438 "/>
    <path style=" stroke:none;fill-rule:evenodd;fill:rgb(10.980392%,15.294118%,29.803922%);fill-opacity:1;" d="M 55.730469 5.832031 C 44.960938 5.832031 36.515625 5.832031 29.929688 6.71875 C 23.1875 7.625 17.867188 9.515625 13.691406 13.691406 C 9.515625 17.867188 7.625 23.1875 6.71875 29.929688 C 5.832031 36.515625 5.832031 44.960938 5.832031 55.730469 L 5.832031 56.269531 C 5.832031 67.039062 5.832031 75.480469 6.71875 82.070312 C 7.625 88.8125 9.515625 94.132812 13.691406 98.308594 C 17.867188 102.484375 23.1875 104.375 29.929688 105.28125 C 36.515625 106.167969 44.960938 106.167969 55.730469 106.167969 L 56.269531 106.167969 C 67.039062 106.167969 75.480469 106.167969 82.070312 105.28125 C 88.8125 104.375 94.132812 102.484375 98.308594 98.308594 C 102.484375 94.132812 104.375 88.8125 105.28125 82.070312 C 106.167969 75.480469 106.167969 67.039062 106.167969 56.269531 L 106.167969 55.730469 C 106.167969 44.960938 106.167969 36.515625 105.28125 29.929688 C 104.375 23.1875 102.484375 17.867188 98.308594 13.691406 C 94.132812 9.515625 88.8125 7.625 82.070312 6.71875 C 75.480469 5.832031 67.039062 5.832031 56.269531 5.832031 Z M 18.640625 18.640625 C 21.300781 15.984375 24.898438 14.457031 30.863281 13.65625 C 36.929688 12.839844 44.902344 12.832031 56 12.832031 C 67.097656 12.832031 75.070312 12.839844 81.136719 13.65625 C 87.101562 14.457031 90.699219 15.984375 93.359375 18.640625 C 96.015625 21.300781 97.542969 24.898438 98.34375 30.863281 C 99.160156 36.929688 99.167969 44.902344 99.167969 56 C 99.167969 67.097656 99.160156 75.070312 98.34375 81.136719 C 97.542969 87.101562 96.015625 90.699219 93.359375 93.359375 C 90.699219 96.015625 87.101562 97.542969 81.136719 98.34375 C 75.070312 99.160156 67.097656 99.167969 56 99.167969 C 44.902344 99.167969 36.929688 99.160156 30.863281 98.34375 C 24.898438 97.542969 21.300781 96.015625 18.640625 93.359375 C 15.984375 90.699219 14.457031 87.101562 13.65625 81.136719 C 12.839844 75.070312 12.832031 67.097656 12.832031 56 C 12.832031 44.902344 12.839844 36.929688 13.65625 30.863281 C 14.457031 24.898438 15.984375 21.300781 18.640625 18.640625 Z M 18.640625 18.640625 "/>
  </g>
  <g id="html">
    <path style=" stroke:none;fill-rule:nonzero;fill:rgb(89.411765%,30.196078%,14.901961%);fill-opacity:1;" d="M 21 98 L 14 10.5 L 98 10.5 L 91 98 L 56 108.5 Z M 21 98 "/>
    <path style=" stroke:none;fill-rule:nonzero;fill:rgb(94.509804%,39.607843%,16.078431%);fill-opacity:1;" d="M 91 17.5 L 56 17.5 L 56 103.25 L 84 94.5 Z M 91 17.5 "/>
    <path style=" stroke:none;fill-rule:nonzero;fill:rgb(100%,100%,100%);fill-opacity:1;" d="M 33.25 61.25 L 29.75 28 L 84 28 L 82.25 38.5 L 40.25 38.5 L 42 50.75 L 80.5 50.75 L 77 84 L 56 91 L 35 84 L 33.25 66.5 L 43.75 66.5 L 45.5 75.25 L 56 78.75 L 66.5 75.25 L 68.25 61.25 Z M 33.25 61.25 "/>
  </g>
  <g id="css">
    <path style=" stroke:none;fill-rule:nonzero;fill:rgb(8.235294%,44.705882%,71.372549%);fill-opacity:1;" d="M 20.65625 95.203125 L 12.796875 7 L 99.203125 7 L 91.332031 95.191406 L 55.949219 105 Z M 20.65625 95.203125 "/>
    <path style=" stroke:none;fill-rule:nonzero;fill:rgb(20%,66.27451%,86.27451%);fill-opacity:1;" d="M 56 97.503906 L 84.59375 89.574219 L 91.320312 14.214844 L 56 14.214844 Z M 56 97.503906 "/>
    <path style=" stroke:none;fill-rule:nonzero;fill:rgb(100%,100%,100%);fill-opacity:1;" d="M 56 46.167969 L 70.316406 46.167969 L 71.300781 35.089844 L 56 35.089844 L 56 24.273438 L 83.125 24.273438 L 82.867188 27.175781 L 80.210938 56.988281 L 56 56.988281 Z M 56 46.167969 "/>
    <path style=" stroke:none;fill-rule:nonzero;fill:rgb(92.156863%,92.156863%,92.156863%);fill-opacity:1;" d="M 56.066406 74.261719 L 56.015625 74.277344 L 43.96875 71.023438 L 43.199219 62.394531 L 32.339844 62.394531 L 33.855469 79.378906 L 56.015625 85.53125 L 56.066406 85.519531 Z M 56.066406 74.261719 "/>
    <path style=" stroke:none;fill-rule:nonzero;fill:rgb(100%,100%,100%);fill-opacity:1;" d="M 69.394531 56.527344 L 68.09375 71.015625 L 56.027344 74.269531 L 56.027344 85.527344 L 78.203125 79.378906 L 78.367188 77.554688 L 80.246094 56.527344 Z M 69.394531 56.527344 "/>
    <path style=" stroke:none;fill-rule:nonzero;fill:rgb(92.156863%,92.156863%,92.156863%);fill-opacity:1;" d="M 56.039062 24.273438 L 56.039062 35.089844 L 29.90625 35.089844 L 29.691406 32.660156 L 29.195312 27.175781 L 28.9375 24.273438 Z M 56.039062 24.273438 "/>
    <path style=" stroke:none;fill-rule:nonzero;fill:rgb(92.156863%,92.156863%,92.156863%);fill-opacity:1;" d="M 56 46.167969 L 56 56.988281 L 44.101562 56.988281 L 43.886719 54.554688 L 43.398438 49.070312 L 43.136719 46.167969 Z M 56 46.167969 "/>
  </g>
  <g id="surface1">
<path style=" stroke:none;fill-rule:nonzero;fill:rgb(19.215686%,47.058824%,77.647059%);fill-opacity:1;" d="M 11.59375 7 L 100.40625 7 C 102.945312 7 105 9.054688 105 11.59375 L 105 100.40625 C 105 102.945312 102.945312 105 100.40625 105 L 11.59375 105 C 9.054688 105 7 102.945312 7 100.40625 L 7 11.59375 C 7 9.054688 9.054688 7 11.59375 7 Z M 11.59375 7 "/>
<path style=" stroke:none;fill-rule:evenodd;fill:rgb(100%,100%,100%);fill-opacity:1;" d="M 63.859375 83.15625 L 63.859375 93.894531 C 65.808594 94.859375 67.886719 95.535156 70.03125 95.90625 C 72.507812 96.363281 75.023438 96.589844 77.542969 96.578125 C 79.996094 96.589844 82.449219 96.34375 84.851562 95.839844 C 87.007812 95.40625 89.066406 94.574219 90.921875 93.390625 C 92.644531 92.277344 94.066406 90.753906 95.054688 88.960938 C 96.828125 85.238281 97.0625 80.972656 95.707031 77.082031 C 95.136719 75.625 94.28125 74.296875 93.199219 73.171875 C 92.035156 71.972656 90.710938 70.941406 89.265625 70.101562 C 87.605469 69.128906 85.878906 68.269531 84.097656 67.53125 C 82.699219 66.953125 81.4375 66.386719 80.316406 65.839844 C 79.324219 65.363281 78.371094 64.800781 77.472656 64.160156 C 76.769531 63.667969 76.15625 63.054688 75.667969 62.347656 C 75.242188 61.707031 75.023438 60.953125 75.03125 60.1875 C 75.023438 59.480469 75.21875 58.785156 75.601562 58.1875 C 76.011719 57.5625 76.5625 57.039062 77.207031 56.660156 C 77.996094 56.199219 78.851562 55.863281 79.746094 55.671875 C 80.847656 55.425781 81.96875 55.308594 83.09375 55.320312 C 84.039062 55.324219 84.984375 55.390625 85.921875 55.523438 C 86.933594 55.660156 87.933594 55.867188 88.917969 56.144531 C 89.917969 56.421875 90.894531 56.773438 91.84375 57.195312 C 92.761719 57.605469 93.644531 58.097656 94.472656 58.671875 L 94.472656 48.648438 C 92.746094 47.996094 90.957031 47.527344 89.132812 47.25 C 86.933594 46.929688 84.710938 46.777344 82.484375 46.796875 C 80.050781 46.785156 77.628906 47.0625 75.261719 47.621094 C 73.121094 48.109375 71.085938 48.980469 69.253906 50.1875 C 67.550781 51.320312 66.148438 52.847656 65.15625 54.636719 C 64.105469 56.621094 63.585938 58.847656 63.648438 61.09375 C 63.570312 64.0625 64.546875 66.964844 66.410156 69.28125 C 68.691406 71.851562 71.570312 73.820312 74.792969 75.019531 C 76.261719 75.625 77.632812 76.21875 78.902344 76.800781 C 80.050781 77.3125 81.152344 77.917969 82.199219 78.609375 C 83.046875 79.160156 83.785156 79.851562 84.390625 80.65625 C 84.925781 81.386719 85.207031 82.269531 85.195312 83.175781 C 85.203125 83.851562 85.027344 84.515625 84.691406 85.105469 C 84.320312 85.738281 83.796875 86.269531 83.171875 86.648438 C 82.386719 87.128906 81.527344 87.472656 80.628906 87.671875 C 79.460938 87.933594 78.265625 88.054688 77.066406 88.039062 C 74.714844 88.035156 72.382812 87.621094 70.175781 86.8125 C 67.867188 85.980469 65.726562 84.742188 63.859375 83.15625 Z M 45.820312 56.421875 L 59.820312 56.421875 L 59.820312 47.578125 L 20.78125 47.578125 L 20.78125 56.421875 L 34.71875 56.421875 L 34.71875 95.8125 L 45.820312 95.8125 Z M 45.820312 56.421875 "/>
</g>
</svg>
